<svg xmlns="http://www.w3.org/2000/svg" xmlns:xlink="http://www.w3.org/1999/xlink" width="48.1" height="18.475" viewBox="0 0 48.1 18.475">
  <defs>
    <clipPath id="clip-path">
      <path id="Path_8242" data-name="Path 8242" d="M17.225.3A4.985,4.985,0,0,0,20.7-.85c1.125-1,1.575-2.475,1.575-5.925V-11.1c0-3.45-.45-4.925-1.575-5.925a5.107,5.107,0,0,0-3.475-1.15,5.151,5.151,0,0,0-3.475,1.15c-1.1,1-1.55,2.475-1.55,5.925v4.325c0,3.45.45,4.95,1.55,5.925A5.028,5.028,0,0,0,17.225.3Z" transform="translate(197.263 832)" fill="#b00020"/>
    </clipPath>
  </defs>
  <g id="Group_48913" data-name="Group 48913" transform="translate(-318.6 -813.825)">
    <path id="Path_8243" data-name="Path 8243" d="M10.525-13.25c0-2.9-1.5-4.925-4.725-4.925-3.05,0-5.075,1.825-5.075,5.9v.05H4.2v-.05c0-1.825.4-2.8,1.475-2.8.85,0,1.3.5,1.3,1.825v.05c0,1.825-1.05,3.5-3.175,6.1L.6-2.95V0h9.775V-3.2H4.75L6.975-5.925C9.25-8.7,10.525-10.7,10.525-13.2Z" transform="translate(318 832)" fill="#fff"/>
    <path id="Path_8244" data-name="Path 8244" d="M36.5-13.25c0-2.9-1.5-4.925-4.725-4.925-3.05,0-5.075,1.825-5.075,5.9v.05h3.475v-.05c0-1.825.4-2.8,1.475-2.8.85,0,1.3.5,1.3,1.825v.05c0,1.825-1.05,3.5-3.175,6.1l-3.2,4.15V0H36.35V-3.2H30.725L32.95-5.925C35.225-8.7,36.5-10.7,36.5-13.2ZM43.175,0h3.55L46.7-1.825V-3.7h2V-6.775h-2V-16.05l.025-1.825H42.85L37.55-7.1v3.4H43.2v1.875ZM40.6-6.775l1.925-4.1a17.406,17.406,0,0,0,.775-1.95h.125c-.075.625-.225,2.35-.225,3.475v2.575Z" transform="translate(318 832)" fill="#fff"/>
    <path id="Path_8241" data-name="Path 8241" d="M17.225.3A4.985,4.985,0,0,0,20.7-.85c1.125-1,1.575-2.475,1.575-5.925V-11.1c0-3.45-.45-4.925-1.575-5.925a5.107,5.107,0,0,0-3.475-1.15,5.151,5.151,0,0,0-3.475,1.15c-1.1,1-1.55,2.475-1.55,5.925v4.325c0,3.45.45,4.95,1.55,5.925A5.028,5.028,0,0,0,17.225.3Z" transform="translate(319.225 832)" fill="#fff"/>
    <g id="Mask_Group_3082" data-name="Mask Group 3082" transform="translate(121.962)" clip-path="url(#clip-path)">
      <rect id="Rectangle_17446" data-name="Rectangle 17446" width="5" height="12" rx="2.5" transform="translate(212 823.063)" fill="#24649e"/>
    </g>
  </g>
</svg>
